<?xml version="1.0" encoding="utf-8" standalone="no"?>
<!DOCTYPE svg PUBLIC "-//W3C//DTD SVG 1.1//EN"
  "http://www.w3.org/Graphics/SVG/1.1/DTD/svg11.dtd">
<svg xmlns:xlink="http://www.w3.org/1999/xlink" width="568.305pt" height="352.2675pt" viewBox="0 0 568.305 352.2675" xmlns="http://www.w3.org/2000/svg" version="1.1">
 <metadata>
  <rdf:RDF xmlns:dc="http://purl.org/dc/elements/1.1/" xmlns:cc="http://creativecommons.org/ns#" xmlns:rdf="http://www.w3.org/1999/02/22-rdf-syntax-ns#">
   <cc:Work>
    <dc:type rdf:resource="http://purl.org/dc/dcmitype/StillImage"/>
    <dc:date>2025-08-27T08:26:49.860180</dc:date>
    <dc:format>image/svg+xml</dc:format>
    <dc:creator>
     <cc:Agent>
      <dc:title>Matplotlib v3.6.3, https://matplotlib.org/</dc:title>
     </cc:Agent>
    </dc:creator>
   </cc:Work>
  </rdf:RDF>
 </metadata>
 <defs>
  <style type="text/css">*{stroke-linejoin: round; stroke-linecap: butt}</style>
 </defs>
 <g id="figure_1">
  <g id="patch_1">
   <path d="M 0 352.2675 
L 568.305 352.2675 
L 568.305 0 
L 0 0 
z
" style="fill: #ffffff"/>
  </g>
  <g id="axes_1">
   <g id="patch_2">
    <path d="M 55.453125 314.34 
L 547.745625 314.34 
L 547.745625 7.2 
L 55.453125 7.2 
z
" style="fill: #ffffff"/>
   </g>
   <g id="PathCollection_1">
    <defs>
     <path id="m6842857176" d="M -3 3 
L 3 -3 
M -3 -3 
L 3 3 
" style="stroke: #e69f00; stroke-width: 1.5"/>
    </defs>
    <g clip-path="url(#p9e0df197d0)">
     <use xlink:href="#m6842857176" x="104.682375" y="171.008" style="fill: #e69f00; stroke: #e69f00; stroke-width: 1.5"/>
    </g>
   </g>
   <g id="matplotlib.axis_1">
    <g id="xtick_1">
     <g id="line2d_1">
      <path d="M 55.453125 314.34 
L 55.453125 7.2 
" clip-path="url(#p9e0df197d0)" style="fill: none; stroke-dasharray: 2.22,0.96; stroke-dashoffset: 0; stroke: #b0b0b0; stroke-opacity: 0.7; stroke-width: 0.6"/>
     </g>
     <g id="line2d_2">
      <defs>
       <path id="m75d9f0a5d5" d="M 0 0 
L 0 -3.5 
" style="stroke: #1a1a1a; stroke-width: 0.8"/>
      </defs>
      <g>
       <use xlink:href="#m75d9f0a5d5" x="55.453125" y="314.34" style="fill: #1a1a1a; stroke: #1a1a1a; stroke-width: 0.8"/>
      </g>
     </g>
     <g id="text_1">
      <!-- 0.00 -->
      <g style="fill: #1a1a1a" transform="translate(42.09375 326.958125) scale(0.12 -0.12)">
       <defs>
        <path id="DejaVuSans-30" d="M 2034 4250 
Q 1547 4250 1301 3770 
Q 1056 3291 1056 2328 
Q 1056 1369 1301 889 
Q 1547 409 2034 409 
Q 2525 409 2770 889 
Q 3016 1369 3016 2328 
Q 3016 3291 2770 3770 
Q 2525 4250 2034 4250 
z
M 2034 4750 
Q 2819 4750 3233 4129 
Q 3647 3509 3647 2328 
Q 3647 1150 3233 529 
Q 2819 -91 2034 -91 
Q 1250 -91 836 529 
Q 422 1150 422 2328 
Q 422 3509 836 4129 
Q 1250 4750 2034 4750 
z
" transform="scale(0.015625)"/>
        <path id="DejaVuSans-2e" d="M 684 794 
L 1344 794 
L 1344 0 
L 684 0 
L 684 794 
z
" transform="scale(0.015625)"/>
       </defs>
       <use xlink:href="#DejaVuSans-30"/>
       <use xlink:href="#DejaVuSans-2e" x="63.623047"/>
       <use xlink:href="#DejaVuSans-30" x="95.410156"/>
       <use xlink:href="#DejaVuSans-30" x="159.033203"/>
      </g>
     </g>
    </g>
    <g id="xtick_2">
     <g id="line2d_3">
      <path d="M 116.989687 314.34 
L 116.989687 7.2 
" clip-path="url(#p9e0df197d0)" style="fill: none; stroke-dasharray: 2.22,0.96; stroke-dashoffset: 0; stroke: #b0b0b0; stroke-opacity: 0.7; stroke-width: 0.6"/>
     </g>
     <g id="line2d_4">
      <g>
       <use xlink:href="#m75d9f0a5d5" x="116.989687" y="314.34" style="fill: #1a1a1a; stroke: #1a1a1a; stroke-width: 0.8"/>
      </g>
     </g>
     <g id="text_2">
      <!-- 0.25 -->
      <g style="fill: #1a1a1a" transform="translate(103.630312 326.958125) scale(0.12 -0.12)">
       <defs>
        <path id="DejaVuSans-32" d="M 1228 531 
L 3431 531 
L 3431 0 
L 469 0 
L 469 531 
Q 828 903 1448 1529 
Q 2069 2156 2228 2338 
Q 2531 2678 2651 2914 
Q 2772 3150 2772 3378 
Q 2772 3750 2511 3984 
Q 2250 4219 1831 4219 
Q 1534 4219 1204 4116 
Q 875 4013 500 3803 
L 500 4441 
Q 881 4594 1212 4672 
Q 1544 4750 1819 4750 
Q 2544 4750 2975 4387 
Q 3406 4025 3406 3419 
Q 3406 3131 3298 2873 
Q 3191 2616 2906 2266 
Q 2828 2175 2409 1742 
Q 1991 1309 1228 531 
z
" transform="scale(0.015625)"/>
        <path id="DejaVuSans-35" d="M 691 4666 
L 3169 4666 
L 3169 4134 
L 1269 4134 
L 1269 2991 
Q 1406 3038 1543 3061 
Q 1681 3084 1819 3084 
Q 2600 3084 3056 2656 
Q 3513 2228 3513 1497 
Q 3513 744 3044 326 
Q 2575 -91 1722 -91 
Q 1428 -91 1123 -41 
Q 819 9 494 109 
L 494 744 
Q 775 591 1075 516 
Q 1375 441 1709 441 
Q 2250 441 2565 725 
Q 2881 1009 2881 1497 
Q 2881 1984 2565 2268 
Q 2250 2553 1709 2553 
Q 1456 2553 1204 2497 
Q 953 2441 691 2322 
L 691 4666 
z
" transform="scale(0.015625)"/>
       </defs>
       <use xlink:href="#DejaVuSans-30"/>
       <use xlink:href="#DejaVuSans-2e" x="63.623047"/>
       <use xlink:href="#DejaVuSans-32" x="95.410156"/>
       <use xlink:href="#DejaVuSans-35" x="159.033203"/>
      </g>
     </g>
    </g>
    <g id="xtick_3">
     <g id="line2d_5">
      <path d="M 178.52625 314.34 
L 178.52625 7.2 
" clip-path="url(#p9e0df197d0)" style="fill: none; stroke-dasharray: 2.22,0.96; stroke-dashoffset: 0; stroke: #b0b0b0; stroke-opacity: 0.7; stroke-width: 0.6"/>
     </g>
     <g id="line2d_6">
      <g>
       <use xlink:href="#m75d9f0a5d5" x="178.52625" y="314.34" style="fill: #1a1a1a; stroke: #1a1a1a; stroke-width: 0.8"/>
      </g>
     </g>
     <g id="text_3">
      <!-- 0.50 -->
      <g style="fill: #1a1a1a" transform="translate(165.166875 326.958125) scale(0.12 -0.12)">
       <use xlink:href="#DejaVuSans-30"/>
       <use xlink:href="#DejaVuSans-2e" x="63.623047"/>
       <use xlink:href="#DejaVuSans-35" x="95.410156"/>
       <use xlink:href="#DejaVuSans-30" x="159.033203"/>
      </g>
     </g>
    </g>
    <g id="xtick_4">
     <g id="line2d_7">
      <path d="M 240.062812 314.34 
L 240.062812 7.2 
" clip-path="url(#p9e0df197d0)" style="fill: none; stroke-dasharray: 2.22,0.96; stroke-dashoffset: 0; stroke: #b0b0b0; stroke-opacity: 0.7; stroke-width: 0.6"/>
     </g>
     <g id="line2d_8">
      <g>
       <use xlink:href="#m75d9f0a5d5" x="240.062812" y="314.34" style="fill: #1a1a1a; stroke: #1a1a1a; stroke-width: 0.8"/>
      </g>
     </g>
     <g id="text_4">
      <!-- 0.75 -->
      <g style="fill: #1a1a1a" transform="translate(226.703437 326.958125) scale(0.12 -0.12)">
       <defs>
        <path id="DejaVuSans-37" d="M 525 4666 
L 3525 4666 
L 3525 4397 
L 1831 0 
L 1172 0 
L 2766 4134 
L 525 4134 
L 525 4666 
z
" transform="scale(0.015625)"/>
       </defs>
       <use xlink:href="#DejaVuSans-30"/>
       <use xlink:href="#DejaVuSans-2e" x="63.623047"/>
       <use xlink:href="#DejaVuSans-37" x="95.410156"/>
       <use xlink:href="#DejaVuSans-35" x="159.033203"/>
      </g>
     </g>
    </g>
    <g id="xtick_5">
     <g id="line2d_9">
      <path d="M 301.599375 314.34 
L 301.599375 7.2 
" clip-path="url(#p9e0df197d0)" style="fill: none; stroke-dasharray: 2.22,0.96; stroke-dashoffset: 0; stroke: #b0b0b0; stroke-opacity: 0.7; stroke-width: 0.6"/>
     </g>
     <g id="line2d_10">
      <g>
       <use xlink:href="#m75d9f0a5d5" x="301.599375" y="314.34" style="fill: #1a1a1a; stroke: #1a1a1a; stroke-width: 0.8"/>
      </g>
     </g>
     <g id="text_5">
      <!-- 1.00 -->
      <g style="fill: #1a1a1a" transform="translate(288.24 326.958125) scale(0.12 -0.12)">
       <defs>
        <path id="DejaVuSans-31" d="M 794 531 
L 1825 531 
L 1825 4091 
L 703 3866 
L 703 4441 
L 1819 4666 
L 2450 4666 
L 2450 531 
L 3481 531 
L 3481 0 
L 794 0 
L 794 531 
z
" transform="scale(0.015625)"/>
       </defs>
       <use xlink:href="#DejaVuSans-31"/>
       <use xlink:href="#DejaVuSans-2e" x="63.623047"/>
       <use xlink:href="#DejaVuSans-30" x="95.410156"/>
       <use xlink:href="#DejaVuSans-30" x="159.033203"/>
      </g>
     </g>
    </g>
    <g id="xtick_6">
     <g id="line2d_11">
      <path d="M 363.135937 314.34 
L 363.135937 7.2 
" clip-path="url(#p9e0df197d0)" style="fill: none; stroke-dasharray: 2.22,0.96; stroke-dashoffset: 0; stroke: #b0b0b0; stroke-opacity: 0.7; stroke-width: 0.6"/>
     </g>
     <g id="line2d_12">
      <g>
       <use xlink:href="#m75d9f0a5d5" x="363.135937" y="314.34" style="fill: #1a1a1a; stroke: #1a1a1a; stroke-width: 0.8"/>
      </g>
     </g>
     <g id="text_6">
      <!-- 1.25 -->
      <g style="fill: #1a1a1a" transform="translate(349.776562 326.958125) scale(0.12 -0.12)">
       <use xlink:href="#DejaVuSans-31"/>
       <use xlink:href="#DejaVuSans-2e" x="63.623047"/>
       <use xlink:href="#DejaVuSans-32" x="95.410156"/>
       <use xlink:href="#DejaVuSans-35" x="159.033203"/>
      </g>
     </g>
    </g>
    <g id="xtick_7">
     <g id="line2d_13">
      <path d="M 424.6725 314.34 
L 424.6725 7.2 
" clip-path="url(#p9e0df197d0)" style="fill: none; stroke-dasharray: 2.22,0.96; stroke-dashoffset: 0; stroke: #b0b0b0; stroke-opacity: 0.7; stroke-width: 0.6"/>
     </g>
     <g id="line2d_14">
      <g>
       <use xlink:href="#m75d9f0a5d5" x="424.6725" y="314.34" style="fill: #1a1a1a; stroke: #1a1a1a; stroke-width: 0.8"/>
      </g>
     </g>
     <g id="text_7">
      <!-- 1.50 -->
      <g style="fill: #1a1a1a" transform="translate(411.313125 326.958125) scale(0.12 -0.12)">
       <use xlink:href="#DejaVuSans-31"/>
       <use xlink:href="#DejaVuSans-2e" x="63.623047"/>
       <use xlink:href="#DejaVuSans-35" x="95.410156"/>
       <use xlink:href="#DejaVuSans-30" x="159.033203"/>
      </g>
     </g>
    </g>
    <g id="xtick_8">
     <g id="line2d_15">
      <path d="M 486.209062 314.34 
L 486.209062 7.2 
" clip-path="url(#p9e0df197d0)" style="fill: none; stroke-dasharray: 2.22,0.96; stroke-dashoffset: 0; stroke: #b0b0b0; stroke-opacity: 0.7; stroke-width: 0.6"/>
     </g>
     <g id="line2d_16">
      <g>
       <use xlink:href="#m75d9f0a5d5" x="486.209062" y="314.34" style="fill: #1a1a1a; stroke: #1a1a1a; stroke-width: 0.8"/>
      </g>
     </g>
     <g id="text_8">
      <!-- 1.75 -->
      <g style="fill: #1a1a1a" transform="translate(472.849687 326.958125) scale(0.12 -0.12)">
       <use xlink:href="#DejaVuSans-31"/>
       <use xlink:href="#DejaVuSans-2e" x="63.623047"/>
       <use xlink:href="#DejaVuSans-37" x="95.410156"/>
       <use xlink:href="#DejaVuSans-35" x="159.033203"/>
      </g>
     </g>
    </g>
    <g id="xtick_9">
     <g id="line2d_17">
      <path d="M 547.745625 314.34 
L 547.745625 7.2 
" clip-path="url(#p9e0df197d0)" style="fill: none; stroke-dasharray: 2.22,0.96; stroke-dashoffset: 0; stroke: #b0b0b0; stroke-opacity: 0.7; stroke-width: 0.6"/>
     </g>
     <g id="line2d_18">
      <g>
       <use xlink:href="#m75d9f0a5d5" x="547.745625" y="314.34" style="fill: #1a1a1a; stroke: #1a1a1a; stroke-width: 0.8"/>
      </g>
     </g>
     <g id="text_9">
      <!-- 2.00 -->
      <g style="fill: #1a1a1a" transform="translate(534.38625 326.958125) scale(0.12 -0.12)">
       <use xlink:href="#DejaVuSans-32"/>
       <use xlink:href="#DejaVuSans-2e" x="63.623047"/>
       <use xlink:href="#DejaVuSans-30" x="95.410156"/>
       <use xlink:href="#DejaVuSans-30" x="159.033203"/>
      </g>
     </g>
    </g>
    <g id="text_10">
     <!-- time -->
     <g style="fill: #1a1a1a" transform="translate(288.044062 342.571875) scale(0.12 -0.12)">
      <defs>
       <path id="DejaVuSans-74" d="M 1172 4494 
L 1172 3500 
L 2356 3500 
L 2356 3053 
L 1172 3053 
L 1172 1153 
Q 1172 725 1289 603 
Q 1406 481 1766 481 
L 2356 481 
L 2356 0 
L 1766 0 
Q 1100 0 847 248 
Q 594 497 594 1153 
L 594 3053 
L 172 3053 
L 172 3500 
L 594 3500 
L 594 4494 
L 1172 4494 
z
" transform="scale(0.015625)"/>
       <path id="DejaVuSans-69" d="M 603 3500 
L 1178 3500 
L 1178 0 
L 603 0 
L 603 3500 
z
M 603 4863 
L 1178 4863 
L 1178 4134 
L 603 4134 
L 603 4863 
z
" transform="scale(0.015625)"/>
       <path id="DejaVuSans-6d" d="M 3328 2828 
Q 3544 3216 3844 3400 
Q 4144 3584 4550 3584 
Q 5097 3584 5394 3201 
Q 5691 2819 5691 2113 
L 5691 0 
L 5113 0 
L 5113 2094 
Q 5113 2597 4934 2840 
Q 4756 3084 4391 3084 
Q 3944 3084 3684 2787 
Q 3425 2491 3425 1978 
L 3425 0 
L 2847 0 
L 2847 2094 
Q 2847 2600 2669 2842 
Q 2491 3084 2119 3084 
Q 1678 3084 1418 2786 
Q 1159 2488 1159 1978 
L 1159 0 
L 581 0 
L 581 3500 
L 1159 3500 
L 1159 2956 
Q 1356 3278 1631 3431 
Q 1906 3584 2284 3584 
Q 2666 3584 2933 3390 
Q 3200 3197 3328 2828 
z
" transform="scale(0.015625)"/>
       <path id="DejaVuSans-65" d="M 3597 1894 
L 3597 1613 
L 953 1613 
Q 991 1019 1311 708 
Q 1631 397 2203 397 
Q 2534 397 2845 478 
Q 3156 559 3463 722 
L 3463 178 
Q 3153 47 2828 -22 
Q 2503 -91 2169 -91 
Q 1331 -91 842 396 
Q 353 884 353 1716 
Q 353 2575 817 3079 
Q 1281 3584 2069 3584 
Q 2775 3584 3186 3129 
Q 3597 2675 3597 1894 
z
M 3022 2063 
Q 3016 2534 2758 2815 
Q 2500 3097 2075 3097 
Q 1594 3097 1305 2825 
Q 1016 2553 972 2059 
L 3022 2063 
z
" transform="scale(0.015625)"/>
      </defs>
      <use xlink:href="#DejaVuSans-74"/>
      <use xlink:href="#DejaVuSans-69" x="39.208984"/>
      <use xlink:href="#DejaVuSans-6d" x="66.992188"/>
      <use xlink:href="#DejaVuSans-65" x="164.404297"/>
     </g>
    </g>
   </g>
   <g id="matplotlib.axis_2">
    <g id="ytick_1">
     <g id="line2d_19">
      <path d="M 55.453125 304.102 
L 547.745625 304.102 
" clip-path="url(#p9e0df197d0)" style="fill: none; stroke-dasharray: 2.22,0.96; stroke-dashoffset: 0; stroke: #b0b0b0; stroke-opacity: 0.7; stroke-width: 0.6"/>
     </g>
     <g id="line2d_20">
      <defs>
       <path id="mf3c49832a5" d="M 0 0 
L 3.5 0 
" style="stroke: #1a1a1a; stroke-width: 0.8"/>
      </defs>
      <g>
       <use xlink:href="#mf3c49832a5" x="55.453125" y="304.102" style="fill: #1a1a1a; stroke: #1a1a1a; stroke-width: 0.8"/>
      </g>
     </g>
     <g id="text_11">
      <!-- −0.2 -->
      <g style="fill: #1a1a1a" transform="translate(22.81375 308.661062) scale(0.12 -0.12)">
       <defs>
        <path id="DejaVuSans-2212" d="M 678 2272 
L 4684 2272 
L 4684 1741 
L 678 1741 
L 678 2272 
z
" transform="scale(0.015625)"/>
       </defs>
       <use xlink:href="#DejaVuSans-2212"/>
       <use xlink:href="#DejaVuSans-30" x="83.789062"/>
       <use xlink:href="#DejaVuSans-2e" x="147.412109"/>
       <use xlink:href="#DejaVuSans-32" x="179.199219"/>
      </g>
     </g>
    </g>
    <g id="ytick_2">
     <g id="line2d_21">
      <path d="M 55.453125 263.15 
L 547.745625 263.15 
" clip-path="url(#p9e0df197d0)" style="fill: none; stroke-dasharray: 2.22,0.96; stroke-dashoffset: 0; stroke: #b0b0b0; stroke-opacity: 0.7; stroke-width: 0.6"/>
     </g>
     <g id="line2d_22">
      <g>
       <use xlink:href="#mf3c49832a5" x="55.453125" y="263.15" style="fill: #1a1a1a; stroke: #1a1a1a; stroke-width: 0.8"/>
      </g>
     </g>
     <g id="text_12">
      <!-- 0.0 -->
      <g style="fill: #1a1a1a" transform="translate(32.869375 267.709062) scale(0.12 -0.12)">
       <use xlink:href="#DejaVuSans-30"/>
       <use xlink:href="#DejaVuSans-2e" x="63.623047"/>
       <use xlink:href="#DejaVuSans-30" x="95.410156"/>
      </g>
     </g>
    </g>
    <g id="ytick_3">
     <g id="line2d_23">
      <path d="M 55.453125 222.198 
L 547.745625 222.198 
" clip-path="url(#p9e0df197d0)" style="fill: none; stroke-dasharray: 2.22,0.96; stroke-dashoffset: 0; stroke: #b0b0b0; stroke-opacity: 0.7; stroke-width: 0.6"/>
     </g>
     <g id="line2d_24">
      <g>
       <use xlink:href="#mf3c49832a5" x="55.453125" y="222.198" style="fill: #1a1a1a; stroke: #1a1a1a; stroke-width: 0.8"/>
      </g>
     </g>
     <g id="text_13">
      <!-- 0.2 -->
      <g style="fill: #1a1a1a" transform="translate(32.869375 226.757062) scale(0.12 -0.12)">
       <use xlink:href="#DejaVuSans-30"/>
       <use xlink:href="#DejaVuSans-2e" x="63.623047"/>
       <use xlink:href="#DejaVuSans-32" x="95.410156"/>
      </g>
     </g>
    </g>
    <g id="ytick_4">
     <g id="line2d_25">
      <path d="M 55.453125 181.246 
L 547.745625 181.246 
" clip-path="url(#p9e0df197d0)" style="fill: none; stroke-dasharray: 2.22,0.96; stroke-dashoffset: 0; stroke: #b0b0b0; stroke-opacity: 0.7; stroke-width: 0.6"/>
     </g>
     <g id="line2d_26">
      <g>
       <use xlink:href="#mf3c49832a5" x="55.453125" y="181.246" style="fill: #1a1a1a; stroke: #1a1a1a; stroke-width: 0.8"/>
      </g>
     </g>
     <g id="text_14">
      <!-- 0.4 -->
      <g style="fill: #1a1a1a" transform="translate(32.869375 185.805062) scale(0.12 -0.12)">
       <defs>
        <path id="DejaVuSans-34" d="M 2419 4116 
L 825 1625 
L 2419 1625 
L 2419 4116 
z
M 2253 4666 
L 3047 4666 
L 3047 1625 
L 3713 1625 
L 3713 1100 
L 3047 1100 
L 3047 0 
L 2419 0 
L 2419 1100 
L 313 1100 
L 313 1709 
L 2253 4666 
z
" transform="scale(0.015625)"/>
       </defs>
       <use xlink:href="#DejaVuSans-30"/>
       <use xlink:href="#DejaVuSans-2e" x="63.623047"/>
       <use xlink:href="#DejaVuSans-34" x="95.410156"/>
      </g>
     </g>
    </g>
    <g id="ytick_5">
     <g id="line2d_27">
      <path d="M 55.453125 140.294 
L 547.745625 140.294 
" clip-path="url(#p9e0df197d0)" style="fill: none; stroke-dasharray: 2.22,0.96; stroke-dashoffset: 0; stroke: #b0b0b0; stroke-opacity: 0.7; stroke-width: 0.6"/>
     </g>
     <g id="line2d_28">
      <g>
       <use xlink:href="#mf3c49832a5" x="55.453125" y="140.294" style="fill: #1a1a1a; stroke: #1a1a1a; stroke-width: 0.8"/>
      </g>
     </g>
     <g id="text_15">
      <!-- 0.6 -->
      <g style="fill: #1a1a1a" transform="translate(32.869375 144.853062) scale(0.12 -0.12)">
       <defs>
        <path id="DejaVuSans-36" d="M 2113 2584 
Q 1688 2584 1439 2293 
Q 1191 2003 1191 1497 
Q 1191 994 1439 701 
Q 1688 409 2113 409 
Q 2538 409 2786 701 
Q 3034 994 3034 1497 
Q 3034 2003 2786 2293 
Q 2538 2584 2113 2584 
z
M 3366 4563 
L 3366 3988 
Q 3128 4100 2886 4159 
Q 2644 4219 2406 4219 
Q 1781 4219 1451 3797 
Q 1122 3375 1075 2522 
Q 1259 2794 1537 2939 
Q 1816 3084 2150 3084 
Q 2853 3084 3261 2657 
Q 3669 2231 3669 1497 
Q 3669 778 3244 343 
Q 2819 -91 2113 -91 
Q 1303 -91 875 529 
Q 447 1150 447 2328 
Q 447 3434 972 4092 
Q 1497 4750 2381 4750 
Q 2619 4750 2861 4703 
Q 3103 4656 3366 4563 
z
" transform="scale(0.015625)"/>
       </defs>
       <use xlink:href="#DejaVuSans-30"/>
       <use xlink:href="#DejaVuSans-2e" x="63.623047"/>
       <use xlink:href="#DejaVuSans-36" x="95.410156"/>
      </g>
     </g>
    </g>
    <g id="ytick_6">
     <g id="line2d_29">
      <path d="M 55.453125 99.342 
L 547.745625 99.342 
" clip-path="url(#p9e0df197d0)" style="fill: none; stroke-dasharray: 2.22,0.96; stroke-dashoffset: 0; stroke: #b0b0b0; stroke-opacity: 0.7; stroke-width: 0.6"/>
     </g>
     <g id="line2d_30">
      <g>
       <use xlink:href="#mf3c49832a5" x="55.453125" y="99.342" style="fill: #1a1a1a; stroke: #1a1a1a; stroke-width: 0.8"/>
      </g>
     </g>
     <g id="text_16">
      <!-- 0.8 -->
      <g style="fill: #1a1a1a" transform="translate(32.869375 103.901062) scale(0.12 -0.12)">
       <defs>
        <path id="DejaVuSans-38" d="M 2034 2216 
Q 1584 2216 1326 1975 
Q 1069 1734 1069 1313 
Q 1069 891 1326 650 
Q 1584 409 2034 409 
Q 2484 409 2743 651 
Q 3003 894 3003 1313 
Q 3003 1734 2745 1975 
Q 2488 2216 2034 2216 
z
M 1403 2484 
Q 997 2584 770 2862 
Q 544 3141 544 3541 
Q 544 4100 942 4425 
Q 1341 4750 2034 4750 
Q 2731 4750 3128 4425 
Q 3525 4100 3525 3541 
Q 3525 3141 3298 2862 
Q 3072 2584 2669 2484 
Q 3125 2378 3379 2068 
Q 3634 1759 3634 1313 
Q 3634 634 3220 271 
Q 2806 -91 2034 -91 
Q 1263 -91 848 271 
Q 434 634 434 1313 
Q 434 1759 690 2068 
Q 947 2378 1403 2484 
z
M 1172 3481 
Q 1172 3119 1398 2916 
Q 1625 2713 2034 2713 
Q 2441 2713 2670 2916 
Q 2900 3119 2900 3481 
Q 2900 3844 2670 4047 
Q 2441 4250 2034 4250 
Q 1625 4250 1398 4047 
Q 1172 3844 1172 3481 
z
" transform="scale(0.015625)"/>
       </defs>
       <use xlink:href="#DejaVuSans-30"/>
       <use xlink:href="#DejaVuSans-2e" x="63.623047"/>
       <use xlink:href="#DejaVuSans-38" x="95.410156"/>
      </g>
     </g>
    </g>
    <g id="ytick_7">
     <g id="line2d_31">
      <path d="M 55.453125 58.39 
L 547.745625 58.39 
" clip-path="url(#p9e0df197d0)" style="fill: none; stroke-dasharray: 2.22,0.96; stroke-dashoffset: 0; stroke: #b0b0b0; stroke-opacity: 0.7; stroke-width: 0.6"/>
     </g>
     <g id="line2d_32">
      <g>
       <use xlink:href="#mf3c49832a5" x="55.453125" y="58.39" style="fill: #1a1a1a; stroke: #1a1a1a; stroke-width: 0.8"/>
      </g>
     </g>
     <g id="text_17">
      <!-- 1.0 -->
      <g style="fill: #1a1a1a" transform="translate(32.869375 62.949062) scale(0.12 -0.12)">
       <use xlink:href="#DejaVuSans-31"/>
       <use xlink:href="#DejaVuSans-2e" x="63.623047"/>
       <use xlink:href="#DejaVuSans-30" x="95.410156"/>
      </g>
     </g>
    </g>
    <g id="ytick_8">
     <g id="line2d_33">
      <path d="M 55.453125 17.438 
L 547.745625 17.438 
" clip-path="url(#p9e0df197d0)" style="fill: none; stroke-dasharray: 2.22,0.96; stroke-dashoffset: 0; stroke: #b0b0b0; stroke-opacity: 0.7; stroke-width: 0.6"/>
     </g>
     <g id="line2d_34">
      <g>
       <use xlink:href="#mf3c49832a5" x="55.453125" y="17.438" style="fill: #1a1a1a; stroke: #1a1a1a; stroke-width: 0.8"/>
      </g>
     </g>
     <g id="text_18">
      <!-- 1.2 -->
      <g style="fill: #1a1a1a" transform="translate(32.869375 21.997062) scale(0.12 -0.12)">
       <use xlink:href="#DejaVuSans-31"/>
       <use xlink:href="#DejaVuSans-2e" x="63.623047"/>
       <use xlink:href="#DejaVuSans-32" x="95.410156"/>
      </g>
     </g>
    </g>
    <g id="text_19">
     <!-- evidence -->
     <g style="fill: #1a1a1a" transform="translate(16.318125 187.974375) rotate(-90) scale(0.12 -0.12)">
      <defs>
       <path id="DejaVuSans-76" d="M 191 3500 
L 800 3500 
L 1894 563 
L 2988 3500 
L 3597 3500 
L 2284 0 
L 1503 0 
L 191 3500 
z
" transform="scale(0.015625)"/>
       <path id="DejaVuSans-64" d="M 2906 2969 
L 2906 4863 
L 3481 4863 
L 3481 0 
L 2906 0 
L 2906 525 
Q 2725 213 2448 61 
Q 2172 -91 1784 -91 
Q 1150 -91 751 415 
Q 353 922 353 1747 
Q 353 2572 751 3078 
Q 1150 3584 1784 3584 
Q 2172 3584 2448 3432 
Q 2725 3281 2906 2969 
z
M 947 1747 
Q 947 1113 1208 752 
Q 1469 391 1925 391 
Q 2381 391 2643 752 
Q 2906 1113 2906 1747 
Q 2906 2381 2643 2742 
Q 2381 3103 1925 3103 
Q 1469 3103 1208 2742 
Q 947 2381 947 1747 
z
" transform="scale(0.015625)"/>
       <path id="DejaVuSans-6e" d="M 3513 2113 
L 3513 0 
L 2938 0 
L 2938 2094 
Q 2938 2591 2744 2837 
Q 2550 3084 2163 3084 
Q 1697 3084 1428 2787 
Q 1159 2491 1159 1978 
L 1159 0 
L 581 0 
L 581 3500 
L 1159 3500 
L 1159 2956 
Q 1366 3272 1645 3428 
Q 1925 3584 2291 3584 
Q 2894 3584 3203 3211 
Q 3513 2838 3513 2113 
z
" transform="scale(0.015625)"/>
       <path id="DejaVuSans-63" d="M 3122 3366 
L 3122 2828 
Q 2878 2963 2633 3030 
Q 2388 3097 2138 3097 
Q 1578 3097 1268 2742 
Q 959 2388 959 1747 
Q 959 1106 1268 751 
Q 1578 397 2138 397 
Q 2388 397 2633 464 
Q 2878 531 3122 666 
L 3122 134 
Q 2881 22 2623 -34 
Q 2366 -91 2075 -91 
Q 1284 -91 818 406 
Q 353 903 353 1747 
Q 353 2603 823 3093 
Q 1294 3584 2113 3584 
Q 2378 3584 2631 3529 
Q 2884 3475 3122 3366 
z
" transform="scale(0.015625)"/>
      </defs>
      <use xlink:href="#DejaVuSans-65"/>
      <use xlink:href="#DejaVuSans-76" x="61.523438"/>
      <use xlink:href="#DejaVuSans-69" x="120.703125"/>
      <use xlink:href="#DejaVuSans-64" x="148.486328"/>
      <use xlink:href="#DejaVuSans-65" x="211.962891"/>
      <use xlink:href="#DejaVuSans-6e" x="273.486328"/>
      <use xlink:href="#DejaVuSans-63" x="336.865234"/>
      <use xlink:href="#DejaVuSans-65" x="391.845703"/>
     </g>
    </g>
   </g>
   <g id="LineCollection_1">
    <path d="M 55.453125 263.15 
L 547.745625 263.15 
" clip-path="url(#p9e0df197d0)" style="fill: none; stroke-dasharray: 5.55,2.4; stroke-dashoffset: 0; stroke: #e69f00; stroke-width: 1.5"/>
    <path d="M 55.453125 58.39 
L 547.745625 58.39 
" clip-path="url(#p9e0df197d0)" style="fill: none; stroke-dasharray: 5.55,2.4; stroke-dashoffset: 0; stroke: #e69f00; stroke-width: 1.5"/>
   </g>
   <g id="line2d_35">
    <path d="M 104.682375 168.789221 
L 104.928521 175.277489 
L 105.420814 163.836602 
L 105.913106 184.410002 
L 106.159252 183.336514 
L 106.405399 185.138498 
L 106.651545 185.001574 
L 106.897691 190.27939 
L 107.389984 179.057529 
L 107.63613 178.384263 
L 107.882276 170.839574 
L 108.128422 167.566702 
L 108.374569 172.884977 
L 108.620715 170.251574 
L 108.866861 176.214704 
L 109.113007 170.280956 
L 109.359154 170.358518 
L 109.6053 171.309805 
L 109.851446 175.473166 
L 110.097592 167.311401 
L 110.343739 168.06628 
L 110.836031 172.628406 
L 111.328324 166.323958 
L 111.820616 160.370457 
L 112.066762 146.257406 
L 112.559055 151.714364 
L 112.805201 156.737895 
L 113.051347 152.503667 
L 113.297494 144.94777 
L 113.54364 145.439877 
L 114.035933 155.727114 
L 114.774371 142.447741 
L 115.020517 146.511257 
L 115.51281 143.76102 
L 115.758956 142.099282 
L 116.005102 136.211 
L 116.251249 134.517489 
L 116.497395 129.875757 
L 116.743541 129.192465 
L 116.989687 127.074682 
L 117.235834 122.741328 
L 117.48198 131.930817 
L 117.728126 133.755001 
L 118.466565 141.981919 
L 118.712711 132.056342 
L 118.958857 137.416956 
L 119.205004 130.901564 
L 119.45115 141.552568 
L 119.697296 143.475264 
L 119.943442 142.175713 
L 120.435735 133.283203 
L 120.681881 127.900505 
L 121.174174 132.660868 
L 121.42032 126.859694 
L 121.666466 127.852693 
L 122.404905 148.667379 
L 122.651051 145.202512 
L 122.897197 144.034582 
L 123.143344 139.317922 
L 123.38949 141.838705 
L 123.635636 140.566436 
L 123.881782 136.269976 
L 124.127929 138.027308 
L 124.374075 134.82394 
L 124.620221 138.864251 
L 125.112514 143.195413 
L 125.35866 150.692858 
L 125.604806 147.29396 
L 125.850952 150.087666 
L 126.097099 149.761053 
L 126.835538 138.711298 
L 127.081684 139.103287 
L 127.32783 141.598466 
L 127.573976 141.868935 
L 128.312415 169.992178 
L 128.558561 176.203719 
L 128.804708 173.369437 
L 129.050854 178.986774 
L 129.297 181.189695 
L 129.543146 172.531376 
L 129.789292 174.592502 
L 130.035439 169.571318 
L 130.281585 175.370855 
L 130.527731 176.455367 
L 130.773877 182.361124 
L 131.020024 184.310678 
L 131.26617 178.623904 
L 131.512316 189.562729 
L 132.004609 184.71902 
L 132.250755 188.320477 
L 132.496901 197.438105 
L 132.743047 196.725348 
L 132.989194 199.908144 
L 133.23534 198.155835 
L 133.481486 197.768628 
L 133.727632 187.15127 
L 133.973779 188.455405 
L 134.219925 194.836921 
L 134.712217 191.760177 
L 135.20451 177.060493 
L 135.450656 174.504013 
L 135.696802 164.783298 
L 135.942949 172.234921 
L 136.189095 176.131651 
L 136.435241 181.885593 
L 136.681387 184.16393 
L 136.927534 192.832371 
L 137.17368 188.474006 
L 137.419826 189.667203 
L 137.912119 205.275323 
L 138.158265 202.999584 
L 138.404411 197.326935 
L 139.14285 162.109982 
L 139.388996 168.271608 
L 139.635142 181.831066 
L 139.881289 179.851901 
L 140.127435 184.870047 
L 140.373581 187.313806 
L 140.619727 191.03147 
L 140.865874 191.69739 
L 141.11202 184.549371 
L 141.358166 183.286757 
L 141.604312 184.068218 
L 141.850459 190.528447 
L 142.096605 201.126441 
L 142.342751 204.029611 
L 142.588897 204.132145 
L 142.835044 192.438946 
L 143.08119 191.349696 
L 143.327336 184.740668 
L 143.573482 187.727934 
L 144.065775 201.158324 
L 144.311921 205.608508 
L 144.558067 191.580785 
L 144.804214 196.653617 
L 145.05036 190.978621 
L 145.296506 196.579434 
L 145.542652 190.301713 
L 145.788799 187.563413 
L 146.034945 188.331944 
L 146.281091 188.350172 
L 146.527237 192.344263 
L 146.773384 189.210198 
L 147.01953 191.91054 
L 147.511822 207.629759 
L 147.757969 206.266526 
L 148.004115 195.796072 
L 148.250261 194.514402 
L 148.496407 195.036883 
L 148.742554 192.940423 
L 148.9887 184.238246 
L 149.234846 182.572015 
L 149.480992 184.987089 
L 149.727139 177.57807 
L 149.973285 174.556126 
L 150.219431 164.366271 
L 150.465577 162.934102 
L 150.95787 179.230152 
L 151.450162 156.887965 
L 151.696309 157.804654 
L 151.942455 160.040111 
L 152.188601 150.331431 
L 152.680894 162.801644 
L 152.92704 158.39034 
L 153.173186 160.699728 
L 153.419332 160.48718 
L 153.665479 161.299774 
L 153.911625 158.86824 
L 154.157771 149.508971 
L 154.403917 148.676714 
L 154.650064 144.261447 
L 154.89621 157.290763 
L 155.142356 157.360506 
L 155.388502 162.574778 
L 155.880795 175.661372 
L 156.126941 177.579136 
L 156.373087 171.402882 
L 156.619234 179.745669 
L 156.86538 179.301615 
L 157.357672 184.066936 
L 158.096111 164.692764 
L 158.342257 165.447488 
L 158.588404 169.70806 
L 158.83455 170.911852 
L 159.326842 167.706915 
L 159.572989 174.482702 
L 159.819135 173.651062 
L 160.065281 171.927553 
L 160.557574 142.982566 
L 160.80372 148.261672 
L 161.049866 149.876791 
L 161.296012 159.106982 
L 161.542159 162.686145 
L 161.788305 160.396866 
L 162.034451 152.343155 
L 162.526744 160.808258 
L 162.77289 174.466413 
L 163.019036 175.273976 
L 163.265182 181.907482 
L 163.511329 185.089933 
L 163.757475 190.521964 
L 164.003621 190.88661 
L 164.495914 211.275852 
L 164.74206 197.243095 
L 165.234352 212.189609 
L 165.480499 200.049736 
L 165.726645 180.993482 
L 165.972791 188.333757 
L 166.218937 190.472487 
L 166.465084 188.015175 
L 166.71123 176.576008 
L 166.957376 182.720275 
L 167.203522 184.062756 
L 167.695815 175.722864 
L 167.941961 177.912793 
L 168.188108 178.533595 
L 168.434254 187.190443 
L 168.926546 189.966094 
L 169.172692 188.217063 
L 169.418839 191.567139 
L 169.664985 188.268177 
L 169.911131 181.46505 
L 170.157277 180.212921 
L 170.403424 177.689558 
L 170.64957 177.099661 
L 170.895716 176.853402 
L 171.141863 181.279836 
L 171.388009 178.984798 
L 171.634155 179.369025 
L 172.126447 155.136571 
L 172.372594 152.392472 
L 172.61874 157.087616 
L 172.864886 164.044857 
L 173.111032 156.086399 
L 173.357179 154.139365 
L 173.603325 150.784686 
L 173.849471 161.835308 
L 174.095618 155.584357 
L 174.341764 152.396238 
L 174.58791 159.340653 
L 174.834056 162.148101 
L 175.080202 160.1948 
L 175.326349 159.609361 
L 175.572495 161.255481 
L 175.818641 161.679863 
L 176.064787 163.065725 
L 176.310934 161.832159 
L 176.55708 152.058419 
L 176.803226 168.432025 
L 177.049372 169.719937 
L 177.295519 168.331293 
L 177.541665 166.168996 
L 177.787811 168.331461 
L 178.033957 179.460663 
L 178.280104 177.091154 
L 178.52625 165.660711 
L 178.772396 175.346874 
L 179.018542 169.507807 
L 179.264689 171.389322 
L 179.510835 171.54069 
L 179.756981 178.11258 
L 180.003127 180.032498 
L 180.249274 171.368894 
L 180.49542 167.350443 
L 180.987712 148.018327 
L 181.233859 144.929494 
L 181.480005 133.391667 
L 181.726151 130.303439 
L 181.972297 124.696437 
L 182.218444 126.371046 
L 182.46459 125.694445 
L 182.710736 129.964607 
L 182.956882 123.311261 
L 183.203029 130.695158 
L 183.449175 125.383666 
L 183.695321 126.372434 
L 184.679906 96.423078 
L 184.926052 106.356452 
L 185.172199 106.544267 
L 185.418345 113.887395 
L 185.664491 116.997587 
L 185.910637 106.96655 
L 186.156784 102.592756 
L 186.40293 106.872674 
L 186.649076 113.190863 
L 186.895222 112.732884 
L 187.141369 120.364496 
L 187.387515 124.464471 
L 187.633661 122.198473 
L 187.879807 114.472023 
L 188.125954 110.284532 
L 188.3721 124.875102 
L 188.618246 122.658591 
L 188.864392 121.946456 
L 189.110539 119.020772 
L 189.356685 108.309973 
L 189.602831 121.423893 
L 189.848977 125.005623 
L 190.095124 120.933746 
L 190.34127 130.928984 
L 190.587416 121.126384 
L 190.833562 118.495533 
L 191.079709 112.768123 
L 191.325855 116.219316 
L 192.064294 101.786653 
L 192.556586 98.026971 
L 192.802732 103.371488 
L 193.295025 104.82292 
L 193.541171 102.094702 
L 193.787318 95.375048 
L 194.033464 101.983442 
L 194.27961 102.547173 
L 194.525756 92.708918 
L 195.018049 102.356422 
L 195.264195 100.800761 
L 195.510341 95.087588 
L 195.756487 94.767891 
L 196.24878 80.123532 
L 196.741073 70.593307 
L 196.987219 55.275856 
L 196.987219 55.275856 
" clip-path="url(#p9e0df197d0)" style="fill: none; stroke: #e69f00; stroke-width: 2; stroke-linecap: square"/>
   </g>
   <g id="line2d_36">
    <path d="M 104.682375 171.008 
L 106.671436 169.022448 
L 108.660496 167.036897 
L 110.649557 165.051345 
L 112.638617 163.065794 
L 114.627678 161.080242 
L 116.616739 159.094691 
L 118.605799 157.109139 
L 120.59486 155.123588 
L 122.58392 153.138036 
L 124.572981 151.152485 
L 126.562042 149.166933 
L 128.551102 147.181382 
L 130.540163 145.19583 
L 132.529223 143.210279 
L 134.518284 141.224727 
L 136.507345 139.239176 
L 138.496405 137.253624 
L 140.485466 135.268073 
L 142.474527 133.282521 
L 144.463587 131.29697 
L 146.452648 129.311418 
L 148.441708 127.325867 
L 150.430769 125.340315 
L 152.41983 123.354764 
L 154.40889 121.369212 
L 156.397951 119.383661 
L 158.387011 117.398109 
L 160.376072 115.412558 
L 162.365133 113.427006 
L 164.354193 111.441455 
L 166.343254 109.455903 
L 168.332314 107.470352 
L 170.321375 105.4848 
L 172.310436 103.499248 
L 174.299496 101.513697 
L 176.288557 99.528145 
L 178.277617 97.542594 
L 180.266678 95.557042 
L 182.255739 93.571491 
L 184.244799 91.585939 
L 186.23386 89.600388 
L 188.22292 87.614836 
L 190.211981 85.629285 
L 192.201042 83.643733 
L 194.190102 81.658182 
L 196.179163 79.67263 
L 198.168223 77.687079 
L 200.157284 75.701527 
L 202.146345 73.715976 
L 204.135405 71.730424 
L 206.124466 69.744873 
L 208.113527 67.759321 
L 210.102587 65.77377 
L 212.091648 63.788218 
L 214.080708 61.802667 
L 216.069769 59.817115 
L 218.05883 57.831564 
L 220.04789 55.846012 
L 222.036951 53.860461 
L 224.026011 51.874909 
L 226.015072 49.889358 
L 228.004133 47.903806 
L 229.993193 45.918255 
L 231.982254 43.932703 
L 233.971314 41.947152 
L 235.960375 39.9616 
L 237.949436 37.976048 
L 239.938496 35.990497 
L 241.927557 34.004945 
L 243.916617 32.019394 
L 245.905678 30.033842 
L 247.894739 28.048291 
L 249.883799 26.062739 
L 251.87286 24.077188 
L 253.86192 22.091636 
L 255.850981 20.106085 
L 257.840042 18.120533 
L 259.829102 16.134982 
L 261.818163 14.14943 
L 263.807223 12.163879 
L 265.796284 10.178327 
L 267.785345 8.192776 
L 269.774405 6.207224 
L 271.763466 4.221673 
L 273.752527 2.236121 
L 275.741587 0.25057 
L 276.994367 -1 
" clip-path="url(#p9e0df197d0)" style="fill: none; stroke-dasharray: 2,3.3; stroke-dashoffset: 0; stroke: #56b4e9; stroke-width: 2"/>
   </g>
   <g id="LineCollection_2">
    <path d="M 55.453125 171.008 
L 104.682375 171.008 
" clip-path="url(#p9e0df197d0)" style="fill: none; stroke-dasharray: 1.5,2.475; stroke-dashoffset: 0; stroke: #e69f00; stroke-width: 1.5"/>
   </g>
   <g id="patch_3">
    <path d="M 55.453125 314.34 
L 55.453125 7.2 
" style="fill: none; stroke: #1a1a1a; stroke-linejoin: miter; stroke-linecap: square"/>
   </g>
   <g id="patch_4">
    <path d="M 55.453125 314.34 
L 547.745625 314.34 
" style="fill: none; stroke: #1a1a1a; stroke-linejoin: miter; stroke-linecap: square"/>
   </g>
   <g id="text_20">
    <!-- a -->
    <g style="fill: #333333" transform="translate(531.77165 56.310312) scale(0.1 -0.1)">
     <defs>
      <path id="DejaVuSans-61" d="M 2194 1759 
Q 1497 1759 1228 1600 
Q 959 1441 959 1056 
Q 959 750 1161 570 
Q 1363 391 1709 391 
Q 2188 391 2477 730 
Q 2766 1069 2766 1631 
L 2766 1759 
L 2194 1759 
z
M 3341 1997 
L 3341 0 
L 2766 0 
L 2766 531 
Q 2569 213 2275 61 
Q 1981 -91 1556 -91 
Q 1019 -91 701 211 
Q 384 513 384 1019 
Q 384 1609 779 1909 
Q 1175 2209 1959 2209 
L 2766 2209 
L 2766 2266 
Q 2766 2663 2505 2880 
Q 2244 3097 1772 3097 
Q 1472 3097 1187 3025 
Q 903 2953 641 2809 
L 641 3341 
Q 956 3463 1253 3523 
Q 1550 3584 1831 3584 
Q 2591 3584 2966 3190 
Q 3341 2797 3341 1997 
z
" transform="scale(0.015625)"/>
     </defs>
     <use xlink:href="#DejaVuSans-61"/>
    </g>
   </g>
   <g id="text_21">
    <!-- 0 -->
    <g style="fill: #333333" transform="translate(531.537275 270.748437) scale(0.1 -0.1)">
     <use xlink:href="#DejaVuSans-30"/>
    </g>
   </g>
   <g id="text_22">
    <!-- z -->
    <g style="fill: #333333" transform="translate(109.6053 173.767375) scale(0.1 -0.1)">
     <defs>
      <path id="DejaVuSans-7a" d="M 353 3500 
L 3084 3500 
L 3084 2975 
L 922 459 
L 3084 459 
L 3084 0 
L 275 0 
L 275 525 
L 2438 3041 
L 353 3041 
L 353 3500 
z
" transform="scale(0.015625)"/>
     </defs>
     <use xlink:href="#DejaVuSans-7a"/>
    </g>
   </g>
   <g id="patch_5">
    <path d="M 101.566206 287.7212 
Q 80.067558 287.7212 58.568911 287.7212 
" style="fill: none; stroke: #000000; stroke-linecap: round"/>
    <path d="M 97.566206 285.7212 
L 101.566206 287.7212 
L 97.566206 289.7212 
" style="fill: none; stroke: #000000; stroke-linecap: round"/>
    <path d="M 62.568911 289.7212 
L 58.568911 287.7212 
L 62.568911 285.7212 
" style="fill: none; stroke: #000000; stroke-linecap: round"/>
   </g>
   <g id="text_23">
    <!-- t₀ -->
    <g style="fill: #333333" transform="translate(76.102906 307.605237) scale(0.1 -0.1)">
     <defs>
      <path id="DejaVuSans-2080" d="M 1781 2091 
Q 1625 2360 1309 2360 
Q 994 2360 838 2091 
Q 678 1822 678 1285 
Q 678 744 838 476 
Q 994 207 1309 207 
Q 1625 207 1781 476 
Q 1941 744 1941 1285 
Q 1941 1822 1781 2091 
z
M 1309 2638 
Q 1813 2638 2078 2291 
Q 2344 1944 2344 1285 
Q 2344 622 2078 275 
Q 1813 -71 1309 -71 
Q 803 -71 537 275 
Q 272 622 272 1285 
Q 272 1944 537 2291 
Q 803 2638 1309 2638 
z
" transform="scale(0.015625)"/>
     </defs>
     <use xlink:href="#DejaVuSans-74"/>
     <use xlink:href="#DejaVuSans-2080" x="39.208984"/>
    </g>
   </g>
   <g id="patch_6">
    <path d="M 163.621449 114.036007 
Q 168.312647 108.534568 172.278408 103.883858 
" style="fill: none; stroke: #000000; stroke-linecap: round"/>
    <path d="M 168.161175 105.629824 
L 172.278408 103.883858 
L 171.204841 108.225223 
" style="fill: none; stroke: #000000; stroke-linecap: round"/>
   </g>
   <g id="text_24">
    <!-- v -->
    <g style="fill: #333333" transform="translate(154.40889 124.128587) scale(0.1 -0.1)">
     <use xlink:href="#DejaVuSans-76"/>
    </g>
   </g>
   <g id="legend_1">
    <g id="patch_7">
     <path d="M 62.453125 44.55625 
L 183.785937 44.55625 
Q 185.785937 44.55625 185.785937 42.55625 
L 185.785937 14.2 
Q 185.785937 12.2 183.785937 12.2 
L 62.453125 12.2 
Q 60.453125 12.2 60.453125 14.2 
L 60.453125 42.55625 
Q 60.453125 44.55625 62.453125 44.55625 
z
" style="fill: #ffffff; opacity: 0.8; stroke: #cccccc; stroke-linejoin: miter"/>
    </g>
    <g id="line2d_37">
     <path d="M 64.453125 20.298437 
L 74.453125 20.298437 
L 84.453125 20.298437 
" style="fill: none; stroke: #e69f00; stroke-width: 2; stroke-linecap: square"/>
    </g>
    <g id="text_25">
     <!-- Sample trajectory -->
     <g style="fill: #333333" transform="translate(92.453125 23.798437) scale(0.1 -0.1)">
      <defs>
       <path id="DejaVuSans-53" d="M 3425 4513 
L 3425 3897 
Q 3066 4069 2747 4153 
Q 2428 4238 2131 4238 
Q 1616 4238 1336 4038 
Q 1056 3838 1056 3469 
Q 1056 3159 1242 3001 
Q 1428 2844 1947 2747 
L 2328 2669 
Q 3034 2534 3370 2195 
Q 3706 1856 3706 1288 
Q 3706 609 3251 259 
Q 2797 -91 1919 -91 
Q 1588 -91 1214 -16 
Q 841 59 441 206 
L 441 856 
Q 825 641 1194 531 
Q 1563 422 1919 422 
Q 2459 422 2753 634 
Q 3047 847 3047 1241 
Q 3047 1584 2836 1778 
Q 2625 1972 2144 2069 
L 1759 2144 
Q 1053 2284 737 2584 
Q 422 2884 422 3419 
Q 422 4038 858 4394 
Q 1294 4750 2059 4750 
Q 2388 4750 2728 4690 
Q 3069 4631 3425 4513 
z
" transform="scale(0.015625)"/>
       <path id="DejaVuSans-70" d="M 1159 525 
L 1159 -1331 
L 581 -1331 
L 581 3500 
L 1159 3500 
L 1159 2969 
Q 1341 3281 1617 3432 
Q 1894 3584 2278 3584 
Q 2916 3584 3314 3078 
Q 3713 2572 3713 1747 
Q 3713 922 3314 415 
Q 2916 -91 2278 -91 
Q 1894 -91 1617 61 
Q 1341 213 1159 525 
z
M 3116 1747 
Q 3116 2381 2855 2742 
Q 2594 3103 2138 3103 
Q 1681 3103 1420 2742 
Q 1159 2381 1159 1747 
Q 1159 1113 1420 752 
Q 1681 391 2138 391 
Q 2594 391 2855 752 
Q 3116 1113 3116 1747 
z
" transform="scale(0.015625)"/>
       <path id="DejaVuSans-6c" d="M 603 4863 
L 1178 4863 
L 1178 0 
L 603 0 
L 603 4863 
z
" transform="scale(0.015625)"/>
       <path id="DejaVuSans-20" transform="scale(0.015625)"/>
       <path id="DejaVuSans-72" d="M 2631 2963 
Q 2534 3019 2420 3045 
Q 2306 3072 2169 3072 
Q 1681 3072 1420 2755 
Q 1159 2438 1159 1844 
L 1159 0 
L 581 0 
L 581 3500 
L 1159 3500 
L 1159 2956 
Q 1341 3275 1631 3429 
Q 1922 3584 2338 3584 
Q 2397 3584 2469 3576 
Q 2541 3569 2628 3553 
L 2631 2963 
z
" transform="scale(0.015625)"/>
       <path id="DejaVuSans-6a" d="M 603 3500 
L 1178 3500 
L 1178 -63 
Q 1178 -731 923 -1031 
Q 669 -1331 103 -1331 
L -116 -1331 
L -116 -844 
L 38 -844 
Q 366 -844 484 -692 
Q 603 -541 603 -63 
L 603 3500 
z
M 603 4863 
L 1178 4863 
L 1178 4134 
L 603 4134 
L 603 4863 
z
" transform="scale(0.015625)"/>
       <path id="DejaVuSans-6f" d="M 1959 3097 
Q 1497 3097 1228 2736 
Q 959 2375 959 1747 
Q 959 1119 1226 758 
Q 1494 397 1959 397 
Q 2419 397 2687 759 
Q 2956 1122 2956 1747 
Q 2956 2369 2687 2733 
Q 2419 3097 1959 3097 
z
M 1959 3584 
Q 2709 3584 3137 3096 
Q 3566 2609 3566 1747 
Q 3566 888 3137 398 
Q 2709 -91 1959 -91 
Q 1206 -91 779 398 
Q 353 888 353 1747 
Q 353 2609 779 3096 
Q 1206 3584 1959 3584 
z
" transform="scale(0.015625)"/>
       <path id="DejaVuSans-79" d="M 2059 -325 
Q 1816 -950 1584 -1140 
Q 1353 -1331 966 -1331 
L 506 -1331 
L 506 -850 
L 844 -850 
Q 1081 -850 1212 -737 
Q 1344 -625 1503 -206 
L 1606 56 
L 191 3500 
L 800 3500 
L 1894 763 
L 2988 3500 
L 3597 3500 
L 2059 -325 
z
" transform="scale(0.015625)"/>
      </defs>
      <use xlink:href="#DejaVuSans-53"/>
      <use xlink:href="#DejaVuSans-61" x="63.476562"/>
      <use xlink:href="#DejaVuSans-6d" x="124.755859"/>
      <use xlink:href="#DejaVuSans-70" x="222.167969"/>
      <use xlink:href="#DejaVuSans-6c" x="285.644531"/>
      <use xlink:href="#DejaVuSans-65" x="313.427734"/>
      <use xlink:href="#DejaVuSans-20" x="374.951172"/>
      <use xlink:href="#DejaVuSans-74" x="406.738281"/>
      <use xlink:href="#DejaVuSans-72" x="445.947266"/>
      <use xlink:href="#DejaVuSans-61" x="487.060547"/>
      <use xlink:href="#DejaVuSans-6a" x="548.339844"/>
      <use xlink:href="#DejaVuSans-65" x="576.123047"/>
      <use xlink:href="#DejaVuSans-63" x="637.646484"/>
      <use xlink:href="#DejaVuSans-74" x="692.626953"/>
      <use xlink:href="#DejaVuSans-6f" x="731.835938"/>
      <use xlink:href="#DejaVuSans-72" x="793.017578"/>
      <use xlink:href="#DejaVuSans-79" x="834.130859"/>
     </g>
    </g>
    <g id="line2d_38">
     <path d="M 64.453125 34.976562 
L 74.453125 34.976562 
L 84.453125 34.976562 
" style="fill: none; stroke-dasharray: 2,3.3; stroke-dashoffset: 0; stroke: #56b4e9; stroke-width: 2"/>
    </g>
    <g id="text_26">
     <!-- Drift (v) -->
     <g style="fill: #333333" transform="translate(92.453125 38.476562) scale(0.1 -0.1)">
      <defs>
       <path id="DejaVuSans-44" d="M 1259 4147 
L 1259 519 
L 2022 519 
Q 2988 519 3436 956 
Q 3884 1394 3884 2338 
Q 3884 3275 3436 3711 
Q 2988 4147 2022 4147 
L 1259 4147 
z
M 628 4666 
L 1925 4666 
Q 3281 4666 3915 4102 
Q 4550 3538 4550 2338 
Q 4550 1131 3912 565 
Q 3275 0 1925 0 
L 628 0 
L 628 4666 
z
" transform="scale(0.015625)"/>
       <path id="DejaVuSans-66" d="M 2375 4863 
L 2375 4384 
L 1825 4384 
Q 1516 4384 1395 4259 
Q 1275 4134 1275 3809 
L 1275 3500 
L 2222 3500 
L 2222 3053 
L 1275 3053 
L 1275 0 
L 697 0 
L 697 3053 
L 147 3053 
L 147 3500 
L 697 3500 
L 697 3744 
Q 697 4328 969 4595 
Q 1241 4863 1831 4863 
L 2375 4863 
z
" transform="scale(0.015625)"/>
       <path id="DejaVuSans-28" d="M 1984 4856 
Q 1566 4138 1362 3434 
Q 1159 2731 1159 2009 
Q 1159 1288 1364 580 
Q 1569 -128 1984 -844 
L 1484 -844 
Q 1016 -109 783 600 
Q 550 1309 550 2009 
Q 550 2706 781 3412 
Q 1013 4119 1484 4856 
L 1984 4856 
z
" transform="scale(0.015625)"/>
       <path id="DejaVuSans-29" d="M 513 4856 
L 1013 4856 
Q 1481 4119 1714 3412 
Q 1947 2706 1947 2009 
Q 1947 1309 1714 600 
Q 1481 -109 1013 -844 
L 513 -844 
Q 928 -128 1133 580 
Q 1338 1288 1338 2009 
Q 1338 2731 1133 3434 
Q 928 4138 513 4856 
z
" transform="scale(0.015625)"/>
      </defs>
      <use xlink:href="#DejaVuSans-44"/>
      <use xlink:href="#DejaVuSans-72" x="77.001953"/>
      <use xlink:href="#DejaVuSans-69" x="118.115234"/>
      <use xlink:href="#DejaVuSans-66" x="145.898438"/>
      <use xlink:href="#DejaVuSans-74" x="179.353516"/>
      <use xlink:href="#DejaVuSans-20" x="218.5625"/>
      <use xlink:href="#DejaVuSans-28" x="250.349609"/>
      <use xlink:href="#DejaVuSans-76" x="289.363281"/>
      <use xlink:href="#DejaVuSans-29" x="348.542969"/>
     </g>
    </g>
   </g>
  </g>
 </g>
 <defs>
  <clipPath id="p9e0df197d0">
   <rect x="55.453125" y="7.2" width="492.2925" height="307.14"/>
  </clipPath>
 </defs>
</svg>
